<svg width="75" height="75" viewBox="0 0 75 75" fill="none" xmlns="http://www.w3.org/2000/svg">
<path fill-rule="evenodd" clip-rule="evenodd" d="M53.7631 19.281H1.1842C0.530273 19.281 0 18.7507 0 18.0967V1.18417C0 0.530273 0.530273 0 1.1842 0H46.2823C46.9364 0 47.4664 0.530121 47.4664 1.18417C47.4664 1.83823 46.9364 2.36836 46.2822 2.36836H2.36835V16.9124H52.579V2.36836H50.246C49.592 2.36836 49.0619 1.83823 49.0619 1.18417C49.0619 0.530121 49.5918 0 50.246 0H53.7631C54.4173 0 54.9473 0.529984 54.9473 1.18417V18.0968C54.9473 18.751 54.4173 19.281 53.7631 19.281ZM13.2822 5.71616C13.2822 6.37036 12.752 6.90034 12.098 6.90034H7.30914V12.3805H13.1748V11.4472C13.1748 10.7932 13.7049 10.263 14.359 10.263C15.0129 10.263 15.5432 10.793 15.5432 11.4472V13.5649C15.5432 14.219 15.013 14.7491 14.359 14.7491H6.12494C5.47107 14.7491 4.9408 14.2191 4.9408 13.5649V5.71616C4.9408 5.06197 5.47089 4.53198 6.12494 4.53198H12.098C12.7519 4.53198 13.2822 5.06197 13.2822 5.71616ZM33.0378 8.21138H19.9778C19.3237 8.21138 18.7935 7.6814 18.7936 7.02721C18.7936 6.373 19.3237 5.84302 19.9778 5.84302H33.0378C33.6917 5.84302 34.2219 6.373 34.2219 7.02721C34.2219 7.6814 33.6918 8.21138 33.0378 8.21138ZM46.0977 13.4377H19.9778C19.3237 13.4377 18.7936 12.9076 18.7936 12.2535C18.7936 11.5995 19.3237 11.0693 19.9778 11.0693H46.0977C46.7518 11.0693 47.2819 11.5995 47.2819 12.2535C47.2819 12.9076 46.7519 13.4377 46.0977 13.4377ZM19.9778 29.7194H33.0378C33.6918 29.7194 34.2219 29.1895 34.2219 28.5353C34.2219 27.8811 33.6917 27.3511 33.0378 27.3511H19.9778C19.3237 27.3511 18.7936 27.8811 18.7936 28.5353C18.7935 29.1893 19.3237 29.7194 19.9778 29.7194ZM45.8102 34.946H19.9778C19.3237 34.946 18.7935 34.4157 18.7936 33.7618C18.7936 33.1078 19.3237 32.5776 19.9778 32.5776H45.8102C46.4642 32.5776 46.9943 33.1076 46.9943 33.7618C46.9943 34.416 46.4644 34.946 45.8102 34.946ZM19.9778 51.2277H33.0378C33.6918 51.2277 34.2219 50.6978 34.2219 50.0436C34.2219 49.3894 33.6917 48.8594 33.0378 48.8594H19.9778C19.3237 48.8594 18.7936 49.3894 18.7936 50.0436C18.7935 50.6976 19.3237 51.2277 19.9778 51.2277ZM19.9778 54.0859H45.6249C46.2791 54.0859 46.809 54.6162 46.8092 55.2701C46.8092 55.924 46.2792 56.4543 45.625 56.4543H19.9778C19.3239 56.4543 18.7936 55.9242 18.7936 55.2701C18.7936 54.6159 19.3237 54.0859 19.9778 54.0859ZM69.3864 59.2996L62.5069 56.541V55.0303C64.402 54 65.8395 52.2331 66.4387 50.1177C68.7381 50.1057 70.6052 48.2323 70.6052 45.9303C70.6052 44.5467 69.9305 43.3183 68.8929 42.5553V39.4107C68.8929 33.5581 64.1314 28.7964 58.2788 28.7964H57.4929C56.6153 28.7964 55.7632 28.9054 54.9472 29.1071V22.6927C54.9472 22.0385 54.4172 21.5085 53.763 21.5085H50.2459C49.5917 21.5085 49.0617 22.0387 49.0617 22.6927C49.0617 23.3468 49.5917 23.8769 50.2459 23.8769H52.579V30.007C49.4713 31.6375 47.2666 34.7619 46.9264 38.4208H2.36835V23.8769H46.2822C46.9364 23.8769 47.4664 23.3468 47.4664 22.6927C47.4664 22.0387 46.9364 21.5085 46.2822 21.5085H1.1842C0.530151 21.5085 0 22.0387 0 22.6927V39.6049C0 40.2591 0.530273 40.7891 1.1842 40.7891H46.8787V42.5428C46.6834 42.6849 46.5009 42.8436 46.333 43.0167H1.1842C0.530151 43.0167 0 43.5467 0 44.2009V61.1131C0 61.7673 0.530273 62.2973 1.1842 62.2973H42.374C41.3733 63.6732 40.6248 65.5274 40.6248 67.9258V73.814C40.6248 74.4681 41.1549 74.9997 41.809 74.9997H46.2825C46.9367 74.9997 47.4667 74.4697 47.4667 73.8155C47.4667 73.1614 46.9367 72.6313 46.2825 72.6313H42.9932V67.9259C42.9932 63.0014 46.8686 61.588 47.0268 61.5328C47.0451 61.5266 47.0634 61.52 47.0812 61.5128L53.5638 58.9744C53.5932 59.0107 53.6244 59.0462 53.6588 59.0799L57.0593 62.3918C57.2805 62.6072 57.577 62.7276 57.8855 62.7276L57.9041 62.7275C58.2192 62.7227 58.5195 62.5921 58.738 62.3652L62.0638 58.9149L68.5342 61.5096C68.5506 61.5162 68.5742 61.5249 68.5907 61.5307C68.7557 61.5883 72.6315 63.0016 72.6315 67.9262V72.6316H50.0714C49.4172 72.6316 48.8873 73.1619 48.8873 73.8158C48.8873 74.47 49.4172 75 50.0714 75H73.8157C74.4699 75 74.9999 74.4583 74.9999 73.8042V67.9261C75 62.6257 71.3486 59.9753 69.3864 59.2996ZM66.7458 44.1421C67.5926 44.2976 68.2368 45.0397 68.2368 45.9304C68.2368 46.8212 67.5926 47.563 66.7458 47.7186V44.1421ZM49.2469 39.4108C49.247 34.8641 52.9462 31.1649 57.4931 31.1649H58.279C62.8257 31.1649 66.5247 34.8641 66.5247 39.4108V41.3447L66.5231 41.3426L66.5212 41.3403L66.52 41.3384C66.5092 41.3233 66.4982 41.3083 66.4865 41.2936C66.4752 41.2795 66.4636 41.2661 66.4516 41.2527C66.438 41.2371 66.4244 41.2218 66.4099 41.2067C66.4023 41.199 66.3945 41.1915 66.3866 41.184L66.375 41.1729L66.3563 41.1553C66.3463 41.1461 66.3362 41.1371 66.3258 41.1282C66.3179 41.1217 66.3099 41.1154 66.3019 41.1091L66.2895 41.0994C66.2717 41.0855 66.2539 41.0717 66.2353 41.0588C66.2276 41.0535 66.2198 41.0484 66.212 41.0435L66.1941 41.0323C66.1761 41.0207 66.1579 41.0093 66.1392 40.9987L66.1296 40.9934C66.1211 40.9888 66.1123 40.9845 66.1036 40.9802L66.1009 40.9788L66.0886 40.9727C66.0718 40.9643 66.0549 40.9558 66.0378 40.9482C66.0214 40.9409 66.0047 40.9347 65.9881 40.9284L65.9747 40.9234C65.9599 40.9179 65.9449 40.912 65.93 40.9072C65.9069 40.8996 65.8832 40.8934 65.8597 40.8873L65.8572 40.8867L65.845 40.8831C65.8382 40.8811 65.8314 40.8791 65.8244 40.8773C63.2474 40.2911 62.4407 36.9594 62.4337 36.9297C62.3309 36.4757 61.9718 36.1242 61.5158 36.031C61.0601 35.9371 60.5917 36.1199 60.319 36.4971C57.2033 40.8048 50.3455 40.8479 50.2507 40.8479H50.2459C50.2269 40.8479 50.2078 40.8484 50.1889 40.8493C50.1674 40.8503 50.1461 40.8519 50.125 40.854C50.1126 40.8553 50.1006 40.8578 50.0881 40.8596C50.0612 40.8631 50.0341 40.8665 50.0077 40.8719C49.9977 40.874 49.9877 40.8767 49.9778 40.8793L49.9576 40.8846L49.9389 40.8891L49.9378 40.8893C49.9232 40.8928 49.9086 40.8963 49.8945 40.9009C49.8812 40.9051 49.8682 40.91 49.8553 40.915L49.8381 40.9215L49.8197 40.928C49.8084 40.9319 49.7971 40.9359 49.7861 40.9404C49.7692 40.9476 49.7531 40.9557 49.737 40.9637L49.7357 40.9643L49.7231 40.9706L49.7084 40.9775L49.6922 40.9852L49.6828 40.9901C49.6614 41.0017 49.6415 41.0147 49.6208 41.0274L49.6135 41.0318L49.605 41.0369C49.5983 41.0408 49.5916 41.0448 49.5851 41.0491C49.579 41.0533 49.573 41.0575 49.567 41.0619C49.5585 41.0683 49.55 41.0748 49.5415 41.0813L49.5296 41.0904C49.5177 41.0994 49.5054 41.1077 49.4938 41.1171C49.4827 41.1263 49.4721 41.1361 49.4615 41.1458L49.4598 41.1474L49.4459 41.1602L49.4354 41.1696L49.4201 41.1832L49.4096 41.1931L49.3984 41.2048L49.3895 41.2145L49.3679 41.2388L49.3566 41.251C49.351 41.257 49.3452 41.2631 49.3397 41.2693L49.333 41.2771C49.3237 41.2884 49.315 41.3004 49.3063 41.3124L49.298 41.3238C49.2869 41.3386 49.2751 41.3528 49.2647 41.3682C49.2583 41.3777 49.2529 41.3878 49.2467 41.3976L49.2469 39.4108ZM49.0619 44.1338V47.7269C48.1891 47.5932 47.5178 46.8398 47.5178 45.9306C47.5176 45.0209 48.189 44.2675 49.0619 44.1338ZM53.3008 56.5338L46.2428 59.298C45.85 59.4329 45.3891 59.6485 44.9032 59.9472C44.8921 59.9453 44.881 59.9436 44.8698 59.9419C44.8471 59.9386 44.8242 59.9359 44.8012 59.9337C44.7692 59.9308 44.7368 59.9292 44.704 59.9292H2.36835V45.3854H45.186C45.1626 45.5639 45.1494 45.7456 45.1494 45.9304C45.1494 48.2396 47.0284 50.1183 49.3378 50.1183C49.3433 50.1183 49.3489 50.1179 49.3544 50.1175L49.3603 50.1171L49.3686 50.1167C49.9677 52.2325 51.4055 53.9997 53.3008 55.0302V56.5338ZM60.1383 57.4993L57.8587 59.8646L55.6692 57.7319V55.8691C56.1511 55.9589 56.647 56.0083 57.1545 56.0083H58.6532C59.1606 56.0083 59.6566 55.9592 60.1383 55.8692V57.4993ZM58.6535 53.6397H57.1548C53.9984 53.6397 51.4304 51.0717 51.4304 47.9154V43.156C53.4974 42.9779 57.8011 42.2676 60.8685 39.4275C61.496 40.6667 62.5872 42.1604 64.3774 42.8934V47.9156C64.3772 51.0719 61.8097 53.6397 58.6535 53.6397ZM16.6737 4.85435C16.1976 4.40582 15.4482 4.42809 14.9996 4.90401L11.0661 9.07764L9.85016 7.75313C9.4079 7.27106 8.65863 7.23941 8.177 7.6815C7.69519 8.12389 7.66327 8.873 8.10535 9.35464L10.1822 11.6171C10.4047 11.8595 10.7179 11.9984 11.0469 12.0006H11.0547C11.3807 12.0006 11.6926 11.8661 11.9164 11.6287L16.723 6.52838C17.1717 6.05244 17.1494 5.30273 16.6737 4.85435ZM13.2822 27.2242C13.2822 27.8784 12.752 28.4084 12.098 28.4084L7.30914 28.4083V33.8887H13.1748V32.9554C13.1748 32.3012 13.7049 31.7712 14.359 31.7712C15.0129 31.7712 15.5432 32.3012 15.5432 32.9554V35.073C15.5432 35.7272 15.013 36.2572 14.359 36.2572H6.12494C5.47107 36.2572 4.9408 35.7272 4.9408 35.073V27.2242C4.9408 26.57 5.47089 26.04 6.12494 26.04H12.098C12.7519 26.04 13.2822 26.57 13.2822 27.2242ZM16.6737 26.3624C16.1976 25.9139 15.4482 25.9361 14.9996 26.4122L11.0661 30.5858L9.85016 29.2613C9.4079 28.7791 8.65863 28.7476 8.177 29.1897C7.69519 29.6321 7.66327 30.3812 8.10535 30.8628L10.1824 33.1253C10.4049 33.3677 10.718 33.5066 11.0471 33.5088H11.0548C11.3809 33.5088 11.6928 33.3743 11.9166 33.1369L16.7232 28.0366C17.1717 27.5606 17.1494 26.8111 16.6737 26.3624ZM13.1748 54.4639C13.1748 53.8097 13.7049 53.2797 14.359 53.2797C15.0129 53.2797 15.5432 53.8097 15.5432 54.4637V56.5813C15.5432 57.2355 15.013 57.7655 14.359 57.7655H6.12494C5.47107 57.7655 4.9408 57.2355 4.9408 56.5813V48.7325C4.9408 48.0783 5.47089 47.5483 6.12494 47.5483H12.0981C12.752 47.5483 13.2823 48.0783 13.2823 48.7325C13.2823 49.3864 12.7522 49.9167 12.0981 49.9167H7.30914V55.3971H13.1748V54.4639ZM14.9996 47.9207L11.0661 52.0944L9.85016 50.7698C9.4079 50.2876 8.65863 50.2563 8.177 50.6982C7.69519 51.1406 7.66327 51.8897 8.10535 52.3714L10.1824 54.6338C10.4049 54.8762 10.718 55.0151 11.0471 55.0173H11.0548C11.3809 55.0173 11.6928 54.8828 11.9166 54.6454L16.7232 49.5451C17.1717 49.0692 17.1494 48.3196 16.6737 47.8711C16.1976 47.4224 15.4482 47.4446 14.9996 47.9207Z" fill="#EF8B54"/>
</svg>
