<svg width="75" height="75" viewBox="0 0 75 75" fill="none" xmlns="http://www.w3.org/2000/svg">
<path fill-rule="evenodd" clip-rule="evenodd" d="M4.83569 0H70.1637C72.8308 0 75 2.16922 75 4.83569V46.7308C75 47.3373 74.5079 47.8294 73.9014 47.8294C73.2943 47.8294 72.8022 47.3373 72.8022 46.7308V14.9471H2.19781V70.1637C2.19781 71.6188 3.38116 72.8022 4.83569 72.8022H70.1637C71.6188 72.8022 72.8022 71.6188 72.8022 70.1637V53.5183C72.8022 52.9112 73.2943 52.4191 73.9008 52.4191C74.5079 52.4191 75 52.9112 75 53.5183V70.1637C75 72.8302 72.8302 75 70.1637 75H4.83569C2.16925 75 0 72.8302 0 70.1637V4.83569C0 2.16922 2.16925 0 4.83569 0ZM2.19781 12.7493H72.8022V4.83569C72.8022 3.38116 71.6188 2.19785 70.1637 2.19785H4.83569C3.38116 2.19785 2.19781 3.38116 2.19781 4.83569V12.7493ZM4.79791 7.44272C4.79791 5.66431 6.24445 4.21777 8.02289 4.21777C9.80072 4.21777 11.2473 5.66431 11.2473 7.44272C11.2473 9.22055 9.80072 10.6671 8.02289 10.6671C6.24445 10.6671 4.79791 9.22055 4.79791 7.44272ZM6.99579 7.44272C6.99579 8.00864 7.45642 8.46924 8.02289 8.46924C8.58881 8.46924 9.04999 8.00864 9.04999 7.44272C9.04999 6.87625 8.58881 6.41562 8.02289 6.41562C7.45642 6.41562 6.99579 6.87625 6.99579 7.44272ZM13.0079 7.44272C13.0079 5.66431 14.4545 4.21777 16.2329 4.21777C18.0107 4.21777 19.4572 5.66431 19.4572 7.44272C19.4572 9.22055 18.0107 10.6671 16.2329 10.6671C14.455 10.6671 13.0079 9.22055 13.0079 7.44272ZM15.2058 7.44272C15.2058 8.00864 15.6664 8.46924 16.2329 8.46924C16.7988 8.46924 17.26 8.00864 17.26 7.44272C17.26 6.87625 16.7988 6.41562 16.2329 6.41562C15.6664 6.41562 15.2058 6.87625 15.2058 7.44272ZM24.4429 4.21777C22.6645 4.21777 21.2179 5.66431 21.2179 7.44272C21.2179 9.22055 22.6645 10.6671 24.4429 10.6671C26.2207 10.6671 27.6672 9.22055 27.6672 7.44272C27.6672 5.66431 26.2207 4.21777 24.4429 4.21777ZM24.4429 8.46924C23.8764 8.46924 23.4158 8.00864 23.4158 7.44272C23.4158 6.87625 23.8764 6.41562 24.4429 6.41562C25.0088 6.41562 25.47 6.87625 25.47 7.44272C25.47 8.00864 25.0093 8.46924 24.4429 8.46924ZM67.5991 22.6947C67.5991 20.7784 66.0404 19.2197 64.1247 19.2197H10.7111C8.79535 19.2197 7.23669 20.7784 7.23669 22.6947V29.1492C7.23669 29.7563 7.72876 30.2478 8.33533 30.2478C8.94238 30.2478 9.43451 29.7563 9.43451 29.1492V22.6947C9.43451 21.9903 10.0073 21.4176 10.7111 21.4176H64.1247C64.8285 21.4176 65.4013 21.9903 65.4013 22.6947V42.81C65.4013 43.5138 64.8285 44.0866 64.1247 44.0866H60.6657L49.4019 31.3922C49.0728 31.022 48.6008 30.8011 48.1052 30.7863C47.6103 30.7697 47.1256 30.9637 46.7754 31.3138L40.8091 37.2774L32.7719 28.2199C32.4434 27.8491 31.9708 27.6283 31.4758 27.6134C30.9809 27.6008 30.4962 27.7908 30.1455 28.141L14.1924 44.0866H10.7111C10.0073 44.0866 9.43451 43.5138 9.43451 42.81V36.0832C9.43451 35.4761 8.94238 34.984 8.33533 34.984C7.72876 34.984 7.23669 35.4761 7.23669 36.0832V42.81C7.23669 44.7257 8.79535 46.2844 10.7111 46.2844H64.1247C66.0404 46.2844 67.5991 44.7257 67.5991 42.81V22.6947ZM17.3012 44.0866L31.4049 29.9898L42.0977 42.0404C42.5005 42.4947 43.1952 42.5359 43.6489 42.1331C44.1027 41.7303 44.1444 41.0356 43.7416 40.5818L42.2705 38.9242L48.0349 33.1626L57.728 44.0866H17.3012ZM7.23669 52.8346C7.23669 50.9194 8.7948 49.3613 10.7105 49.3613H31.9662C33.8814 49.3613 35.4401 50.9194 35.4401 52.8346V63.6149C35.4401 65.5307 33.8814 67.0888 31.9662 67.0888H10.7105C8.7948 67.0888 7.23669 65.5307 7.23669 63.6149V52.8346ZM33.2422 63.6149V52.8346C33.2422 52.1314 32.6694 51.5586 31.9662 51.5586H10.7105C10.0067 51.5586 9.43451 52.1314 9.43451 52.8346V63.6149C9.43451 64.3188 10.0067 64.891 10.7105 64.891H31.9662C32.6694 64.891 33.2422 64.3188 33.2422 63.6149ZM42.8696 49.3613C40.9538 49.3613 39.3957 50.9194 39.3957 52.8346V63.6149C39.3957 65.5307 40.9538 67.0888 42.8696 67.0888H64.1253C66.0404 67.0888 67.5991 65.5307 67.5991 63.6149V52.8346C67.5991 50.9194 66.0404 49.3613 64.1253 49.3613H42.8696ZM65.4013 52.8346V63.6149C65.4013 64.3188 64.8285 64.891 64.1253 64.891H42.8696C42.1658 64.891 41.5936 64.3188 41.5936 63.6149V52.8346C41.5936 52.1314 42.1658 51.5586 42.8696 51.5586H64.1253C64.8285 51.5586 65.4013 52.1314 65.4013 52.8346ZM15.8117 55.7042H12.8408C12.2337 55.7042 11.7416 55.2127 11.7416 54.6056C11.7416 53.9984 12.2337 53.5063 12.8408 53.5063H15.8117C16.4188 53.5063 16.9104 53.9984 16.9104 54.6056C16.9104 55.2127 16.4188 55.7042 15.8117 55.7042ZM12.8408 59.4268H14.3858C14.9923 59.4268 15.4844 58.9352 15.4844 58.3281C15.4844 57.721 14.9923 57.2295 14.3858 57.2295H12.8408C12.2337 57.2295 11.7416 57.721 11.7416 58.3281C11.7416 58.9352 12.2337 59.4268 12.8408 59.4268ZM25.7338 57.2295H29.8359C30.443 57.2295 30.9345 57.721 30.9345 58.3281C30.9345 58.9352 30.443 59.4268 29.8359 59.4268H25.7338C25.1266 59.4268 24.6346 58.9352 24.6346 58.3281C24.6346 57.721 25.1266 57.2295 25.7338 57.2295ZM19.5803 55.7042H29.5429C30.1495 55.7042 30.6416 55.2127 30.6416 54.6056C30.6416 53.9984 30.1495 53.5063 29.5429 53.5063H19.5803C18.9732 53.5063 18.4816 53.9984 18.4816 54.6056C18.4816 55.2127 18.9732 55.7042 19.5803 55.7042ZM26.5715 60.7458H29.5429C30.1495 60.7458 30.6416 61.2374 30.6416 61.8445C30.6416 62.4516 30.1495 62.9437 29.5429 62.9437H26.5715C25.9649 62.9437 25.4728 62.4516 25.4728 61.8445C25.4728 61.2374 25.9649 60.7458 26.5715 60.7458ZM22.8035 60.7458H12.8408C12.2337 60.7458 11.7416 61.2374 11.7416 61.8445C11.7416 62.4516 12.2337 62.9437 12.8408 62.9437H22.8035C23.41 62.9437 23.9021 62.4516 23.9021 61.8445C23.9021 61.2374 23.41 60.7458 22.8035 60.7458ZM22.0711 59.4268H17.7921C17.1856 59.4268 16.6935 58.9352 16.6935 58.3281C16.6935 57.721 17.1856 57.2295 17.7921 57.2295H22.0711C22.6776 57.2295 23.1697 57.721 23.1697 58.3281C23.1697 58.9352 22.6776 59.4268 22.0711 59.4268ZM44.9999 55.7042H47.9708C48.5779 55.7042 49.0694 55.2127 49.0694 54.6056C49.0694 53.9984 48.5779 53.5063 47.9708 53.5063H44.9999C44.3928 53.5063 43.9007 53.9984 43.9007 54.6056C43.9007 55.2127 44.3928 55.7042 44.9999 55.7042ZM46.5448 59.4268H44.9999C44.3928 59.4268 43.9007 58.9352 43.9007 58.3281C43.9007 57.721 44.3928 57.2295 44.9999 57.2295H46.5448C47.1514 57.2295 47.6435 57.721 47.6435 58.3281C47.6435 58.9352 47.1514 59.4268 46.5448 59.4268ZM61.9949 57.2295H57.8928C57.2857 57.2295 56.7936 57.721 56.7936 58.3281C56.7936 58.9352 57.2857 59.4268 57.8928 59.4268H61.9949C62.6015 59.4268 63.0936 58.9352 63.0936 58.3281C63.0936 57.721 62.6015 57.2295 61.9949 57.2295ZM61.702 55.7042H51.7393C51.1322 55.7042 50.6401 55.2127 50.6401 54.6056C50.6401 53.9984 51.1322 53.5063 51.7393 53.5063H61.702C62.3085 53.5063 62.8006 53.9984 62.8006 54.6056C62.8006 55.2127 62.3085 55.7042 61.702 55.7042ZM61.702 60.7458H58.7305C58.124 60.7458 57.6319 61.2374 57.6319 61.8445C57.6319 62.4516 58.124 62.9437 58.7305 62.9437H61.702C62.3085 62.9437 62.8006 62.4516 62.8006 61.8445C62.8006 61.2374 62.3085 60.7458 61.702 60.7458ZM44.9999 60.7458H54.9625C55.5691 60.7458 56.0612 61.2374 56.0612 61.8445C56.0612 62.4516 55.5691 62.9437 54.9625 62.9437H44.9999C44.3928 62.9437 43.9007 62.4516 43.9007 61.8445C43.9007 61.2374 44.3928 60.7458 44.9999 60.7458ZM49.9512 59.4268H54.2301C54.8367 59.4268 55.3288 58.9352 55.3288 58.3281C55.3288 57.721 54.8367 57.2295 54.2301 57.2295H49.9512C49.3446 57.2295 48.8525 57.721 48.8525 58.3281C48.8525 58.9352 49.3446 59.4268 49.9512 59.4268ZM55.7751 23.176C58.0828 23.176 59.9596 25.0534 59.9596 27.3606C59.9596 29.6683 58.0828 31.5457 55.7751 31.5457C53.4679 31.5457 51.5905 29.6683 51.5905 27.3606C51.5905 25.0534 53.4679 23.176 55.7751 23.176ZM55.7751 25.3739C54.6793 25.3739 53.7884 26.2648 53.7884 27.3606C53.7884 28.4563 54.6793 29.3478 55.7751 29.3478C56.8708 29.3478 57.7623 28.4563 57.7623 27.3606C57.7623 26.2648 56.8708 25.3739 55.7751 25.3739Z" fill="#EF8B54"/>
</svg>
