<svg width="75" height="76" viewBox="0 0 75 76" fill="none" xmlns="http://www.w3.org/2000/svg">
<path fill-rule="evenodd" clip-rule="evenodd" d="M70.1697 0.978027H4.83115C2.16751 0.978027 0 3.14497 0 5.80917V58.9197C0 61.5833 2.16751 63.7503 4.83115 63.7503H8.96191C9.56787 63.7503 10.0594 63.2593 10.0594 62.6528C10.0594 62.0468 9.56787 61.5553 8.96191 61.5553H4.83115C3.37775 61.5553 2.19556 60.3731 2.19556 58.9197V54.7558H42.1854V56.6475H41.315C40.1243 56.6475 39.1561 57.6156 39.1561 58.8064V61.5553H15.6355C15.0296 61.5553 14.5381 62.0468 14.5381 62.6528C14.5381 63.2593 15.0296 63.7503 15.6355 63.7503H26.1893V67.6871H22.8751C20.6641 67.6871 18.8657 69.4861 18.8657 71.6965V74.0677C18.8657 75.0765 19.6862 75.8971 20.695 75.8971H54.2217C55.2305 75.8971 56.0511 75.0765 56.0511 74.0677V71.6965C56.0511 69.4861 54.2526 67.6871 52.0416 67.6871H48.7274V66.2995H69.0196C70.2098 66.2995 71.1779 65.3313 71.1779 64.1405V63.6238C73.3174 63.1271 74.9167 61.2074 74.9167 58.9197L74.9997 5.80859C75.0003 3.14497 72.8333 0.978027 70.1697 0.978027ZM41.3517 52.1425V46.881H68.983V52.1425H41.3517ZM44.3804 44.6855V42.3761H65.9537V44.6855H44.3804ZM65.9537 54.3375V56.6475H44.3804V54.3375H65.9537ZM28.3843 63.7503H39.1561V64.1411C39.1561 65.3313 40.1243 66.2995 41.315 66.2995H46.5324V67.6871H28.3843V63.7503ZM52.0422 69.8826C53.0424 69.8826 53.8561 70.6963 53.8561 71.6965V73.7021H21.0606V71.6965C21.0606 70.6963 21.8749 69.8826 22.8751 69.8826H52.0422ZM68.983 64.1039H41.3517V58.843H68.983V64.1039ZM72.7218 58.9197C72.7218 59.9829 72.0878 60.899 71.1785 61.315V58.8058C71.1785 57.6156 70.2098 56.6475 69.0196 56.6475H68.1493V54.7558H72.7218V58.9197ZM72.7218 52.5608H71.1425C71.1648 52.4366 71.1785 46.8444 71.1785 46.8444C71.1785 45.6537 70.2098 44.6855 69.0196 44.6855H68.1493V42.3761H69.0196C70.2098 42.3761 71.1785 41.4073 71.1785 40.2171V34.8824C71.1785 33.6922 70.2098 32.7235 69.0196 32.7235H62.8197C62.2132 32.7235 61.7222 33.215 61.7222 33.8216C61.7222 34.4275 62.2132 34.9191 62.8197 34.9191H68.983V40.1805H41.3517V34.9191H55.9899C56.5964 34.9191 57.0873 34.4275 57.0873 33.8216C57.0873 33.215 56.5964 32.7235 55.9899 32.7235H41.315C40.1243 32.7235 39.1561 33.6922 39.1561 34.8824V40.2171C39.1561 41.4073 40.1243 42.3761 41.315 42.3761H42.1854V44.6855H41.315C40.1243 44.6855 39.1561 45.6542 39.1561 46.8444C39.1561 46.8444 39.1698 52.4366 39.1922 52.5608H2.19556V15.9092H72.7218V52.5608ZM72.7218 13.7136H2.27625V5.80859C2.27625 4.35577 3.45844 3.17358 4.91183 3.17358H70.0862C71.5396 3.17358 72.7218 4.35577 72.7218 5.80917V13.7136ZM11.8904 28.55C12.022 28.6015 12.1582 28.6261 12.2915 28.6261C12.7298 28.6261 13.1436 28.3618 13.3135 27.9297L16.0172 21.0467C16.2392 20.4825 15.9611 19.8456 15.3969 19.6236C14.8333 19.4021 14.1958 19.6797 13.9744 20.2439L11.2701 27.1269C11.0487 27.6911 11.3262 28.3286 11.8904 28.55ZM16.8641 26.7521L19.5294 24.0868L16.8647 21.4215C16.4355 20.9929 16.4355 20.2982 16.8647 19.8691C17.2932 19.4405 17.9879 19.4405 18.4165 19.8691L21.8583 23.3109C22.2869 23.7389 22.2869 24.4341 21.8583 24.8627L18.4165 28.3045C18.2025 28.5185 17.9215 28.6261 17.6406 28.6261C17.3596 28.6261 17.0787 28.5185 16.8647 28.3045C16.4355 27.8759 16.4355 27.1807 16.8641 26.7521ZM9.41278 28.626C9.13181 28.626 8.85086 28.5184 8.63684 28.3044L5.19559 24.8632C4.98962 24.6572 4.87402 24.378 4.87402 24.0867C4.87402 23.796 4.98962 23.5168 5.19559 23.3108L8.63684 19.8695C9.06543 19.441 9.76068 19.441 10.1892 19.8695C10.6178 20.2981 10.6178 20.9928 10.1892 21.4219L7.5239 24.0867L10.1892 26.752C10.6178 27.1806 10.6178 27.8759 10.1892 28.3044C9.97467 28.519 9.69373 28.626 9.41278 28.626ZM13.9876 35.0657H6.59299C5.98645 35.0657 5.49548 34.5742 5.49548 33.9676C5.49548 33.3617 5.98645 32.8701 6.59299 32.8701H13.9876C14.5936 32.8701 15.0851 33.3617 15.0851 33.9676C15.0851 34.5742 14.5936 35.0657 13.9876 35.0657ZM31.0187 32.8701H18.0181C17.4122 32.8701 16.9207 33.3617 16.9207 33.9676C16.9207 34.5742 17.4122 35.0657 18.0181 35.0657H31.0187C31.6252 35.0657 32.1168 34.5742 32.1168 33.9676C32.1168 33.3617 31.6252 32.8701 31.0187 32.8701ZM9.74298 39.6953H6.59299C5.98645 39.6953 5.49548 39.2038 5.49548 38.5972C5.49548 37.9913 5.98645 37.4998 6.59299 37.4998H9.74298C10.3489 37.4998 10.8405 37.9913 10.8405 38.5972C10.8405 39.2038 10.3489 39.6953 9.74298 39.6953ZM27.0031 37.4998C26.3966 37.4998 25.9056 37.9913 25.9056 38.5972C25.9056 39.2038 26.3966 39.6953 27.0031 39.6953H28.9211C29.5277 39.6953 30.0192 39.2038 30.0192 38.5972C30.0192 37.9913 29.5277 37.4998 28.9211 37.4998H27.0031ZM23.0166 37.4998C23.6225 37.4998 24.114 37.9913 24.114 38.5972C24.114 39.2038 23.6225 39.6953 23.0166 39.6953H13.5946C12.9881 39.6953 12.4971 39.2038 12.4971 38.5972C12.4971 37.9913 12.9881 37.4998 13.5946 37.4998H23.0166ZM31.3043 38.5972C31.3043 39.2038 31.7958 39.6953 32.4018 39.6953H35.9947C36.6012 39.6953 37.0927 39.2038 37.0927 38.5972C37.0927 37.9913 36.6012 37.4998 35.9947 37.4998H32.4018C31.7958 37.4998 31.3043 37.9913 31.3043 38.5972ZM29.1163 24.9673H25.3266C24.72 24.9673 24.2285 24.4758 24.2285 23.8692C24.2285 23.2633 24.72 22.7717 25.3266 22.7717H29.1163C29.7228 22.7717 30.2144 23.2633 30.2144 23.8692C30.2144 24.4758 29.7228 24.9673 29.1163 24.9673ZM33.3609 24.9673H56.4844C57.0909 24.9673 57.5819 24.4758 57.5819 23.8692C57.5819 23.2633 57.0909 22.7717 56.4844 22.7717H33.3609C32.7544 22.7717 32.2628 23.2633 32.2628 23.8692C32.2628 24.4758 32.7544 24.9673 33.3609 24.9673ZM43.6051 27.6011H52.9721C53.5781 27.6011 54.0696 28.0926 54.0696 28.6992C54.0696 29.3051 53.5781 29.7966 52.9721 29.7966H43.6051C42.9991 29.7966 42.5076 29.3051 42.5076 28.6992C42.5076 28.0926 42.9991 27.6011 43.6051 27.6011ZM40.0927 27.6011H36.8729C36.2663 27.6011 35.7754 28.0926 35.7754 28.6992C35.7754 29.3051 36.2663 29.7966 36.8729 29.7966H40.0927C40.6992 29.7966 41.1902 29.3051 41.1902 28.6992C41.1902 28.0926 40.6992 27.6011 40.0927 27.6011ZM33.2144 29.7966H25.3266C24.72 29.7966 24.2285 29.3051 24.2285 28.6992C24.2285 28.0926 24.72 27.6011 25.3266 27.6011H33.2144C33.8204 27.6011 34.3119 28.0926 34.3119 28.6992C34.3119 29.3051 33.8204 29.7966 33.2144 29.7966ZM23.0301 42.0906H15.6361C15.0295 42.0906 14.538 42.5821 14.538 43.1881C14.538 43.794 15.0295 44.2856 15.6361 44.2856H23.0301C23.6361 44.2856 24.1276 43.794 24.1276 43.1881C24.1276 42.5821 23.6361 42.0906 23.0301 42.0906ZM6.59299 42.0906H12.2738C12.8804 42.0906 13.3713 42.5821 13.3713 43.1881C13.3713 43.794 12.8804 44.2856 12.2738 44.2856H6.59299C5.98645 44.2856 5.49548 43.794 5.49548 43.1881C5.49548 42.5821 5.98645 42.0906 6.59299 42.0906ZM36.4342 42.0906H26.7748C26.1682 42.0906 25.6773 42.5821 25.6773 43.1881C25.6773 43.794 26.1682 44.2856 26.7748 44.2856H36.4342C37.0402 44.2856 37.5317 43.794 37.5317 43.1881C37.5317 42.5821 37.0402 42.0906 36.4342 42.0906ZM44.215 36.4522H49.4971C50.1036 36.4522 50.5946 36.9437 50.5946 37.5497C50.5946 38.1562 50.1036 38.6477 49.4971 38.6477H44.215C43.609 38.6477 43.1175 38.1562 43.1175 37.5497C43.1175 36.9437 43.609 36.4522 44.215 36.4522ZM58.6626 38.6477H66.1191C66.7256 38.6477 67.2171 38.1562 67.2171 37.5497C67.2171 36.9437 66.7256 36.4522 66.1191 36.4522H58.6626C58.0561 36.4522 57.5652 36.9437 57.5652 37.5497C57.5652 38.1562 58.0567 38.6477 58.6626 38.6477ZM53.2255 36.4522H54.9341C55.5407 36.4522 56.0316 36.9437 56.0316 37.5497C56.0316 38.1562 55.5407 38.6477 54.9341 38.6477H53.2255C52.619 38.6477 52.1274 38.1562 52.1274 37.5497C52.1274 36.9437 52.619 36.4522 53.2255 36.4522ZM44.215 50.6091H49.4971C50.1036 50.6091 50.5946 50.1181 50.5946 49.5116C50.5946 48.9056 50.1036 48.4141 49.4971 48.4141H44.215C43.609 48.4141 43.1175 48.9056 43.1175 49.5116C43.1175 50.1181 43.609 50.6091 44.215 50.6091ZM66.1191 50.6091H58.6626C58.0567 50.6091 57.5652 50.1181 57.5652 49.5116C57.5652 48.9056 58.0561 48.4141 58.6626 48.4141H66.1191C66.7256 48.4141 67.2171 48.9056 67.2171 49.5116C67.2171 50.1181 66.7256 50.6091 66.1191 50.6091ZM53.2256 50.6091H54.9342C55.5408 50.6091 56.0323 50.1181 56.0323 49.5116C56.0323 48.9056 55.5408 48.4141 54.9342 48.4141H53.2256C52.6191 48.4141 52.1281 48.9056 52.1281 49.5116C52.1281 50.1181 52.6191 50.6091 53.2256 50.6091ZM44.215 60.376H49.4971C50.1036 60.376 50.5946 60.8675 50.5946 61.4735C50.5946 62.0794 50.1036 62.571 49.4971 62.571H44.215C43.609 62.571 43.1175 62.0794 43.1175 61.4735C43.1175 60.8675 43.609 60.376 44.215 60.376ZM66.1191 60.376H58.6626C58.0561 60.376 57.5652 60.8675 57.5652 61.4735C57.5652 62.0794 58.0561 62.571 58.6626 62.571H66.1191C66.7256 62.571 67.2171 62.0794 67.2171 61.4735C67.2171 60.8675 66.7256 60.376 66.1191 60.376ZM53.2255 60.376H54.9341C55.5407 60.376 56.0316 60.8675 56.0316 61.4735C56.0316 62.0794 55.5407 62.571 54.9341 62.571H53.2255C52.619 62.571 52.1274 62.0794 52.1274 61.4735C52.1274 60.8675 52.619 60.376 53.2255 60.376ZM4.87402 8.41211C4.87402 6.63599 6.31885 5.19116 8.09497 5.19116C9.87109 5.19116 11.3165 6.63599 11.3165 8.41211C11.3165 10.1882 9.87109 11.6337 8.09497 11.6337C6.31885 11.6337 4.87402 10.1882 4.87402 8.41211ZM7.069 8.41211C7.069 8.97803 7.52963 9.43808 8.09497 9.43808C8.66089 9.43808 9.12094 8.97803 9.12094 8.41211C9.12094 7.84677 8.66089 7.38615 8.09497 7.38615C7.52963 7.38615 7.069 7.84677 7.069 8.41211ZM16.2965 5.19116C14.5203 5.19116 13.075 6.63599 13.075 8.41211C13.075 10.1882 14.5203 11.6337 16.2965 11.6337C18.0726 11.6337 19.5174 10.1882 19.5174 8.41211C19.5174 6.63599 18.072 5.19116 16.2965 5.19116ZM16.2965 9.43808C15.7306 9.43808 15.2705 8.97803 15.2705 8.41211C15.2705 7.84677 15.7306 7.38615 16.2965 7.38615C16.8618 7.38615 17.3224 7.84677 17.3224 8.41211C17.3224 8.97803 16.8618 9.43808 16.2965 9.43808ZM21.2763 8.41211C21.2763 6.63599 22.7211 5.19116 24.4972 5.19116C26.2734 5.19116 27.7188 6.63599 27.7188 8.41211C27.7188 10.1882 26.2734 11.6337 24.4972 11.6337C22.7211 11.6337 21.2763 10.1882 21.2763 8.41211ZM23.4713 8.41211C23.4713 8.97803 23.9319 9.43808 24.4972 9.43808C25.0631 9.43808 25.5232 8.97803 25.5232 8.41211C25.5232 7.84677 25.0631 7.38615 24.4972 7.38615C23.9319 7.38615 23.4713 7.84677 23.4713 8.41211Z" fill="#EF8B54"/>
</svg>
