<svg width="81" height="81" viewBox="0 0 81 81" fill="none" xmlns="http://www.w3.org/2000/svg">
<path fill-rule="evenodd" clip-rule="evenodd" d="M40.5 21.0793L50.1178 13.0645H62.7096V0H31.3548V13.0645H40.5V21.0793ZM33.9677 10.4516V2.6129H60.0967V10.4516H49.1724L43.1129 15.5014V10.4516H33.9677ZM36.5807 5.22583H39.1936V7.83873H36.5807V5.22583ZM52.2581 5.22583H41.8065V7.83873H52.2581V5.22583ZM54.8709 5.22583H57.4838V7.83873H54.8709V5.22583ZM65.4482 67.811L66.5046 78.387H81V80.9999H0V78.387H11.7581V57.4838H9.14516V49.6451H14.371V44.7631C14.371 42.4411 15.9294 40.3742 18.1608 39.7382L23.5161 38.2098V35.875C21.9169 34.4378 20.9032 32.362 20.9032 30.0483V27.4354C20.9032 23.1122 24.4188 19.5967 28.7419 19.5967C33.0651 19.5967 36.5806 23.1122 36.5806 27.4354V30.0483C36.5806 32.3633 35.567 34.4391 33.9677 35.875V38.2085L39.323 39.737C41.4422 40.343 42.9381 42.2414 43.0842 44.4193H50.4107L57.4226 37.4073C54.4149 36.3101 52.2581 33.4305 52.2581 30.0483V27.4354C52.2581 23.1122 55.7736 19.5967 60.0968 19.5967C64.4199 19.5967 67.9355 23.1122 67.9355 27.4354V30.0483C67.9355 32.3295 66.9505 34.3791 65.3902 35.8125C66.9595 36.6303 67.9355 38.2251 67.9355 40.0011V41.8064H73.1613V58.7902C73.1613 63.3443 69.8103 67.1214 65.4482 67.811ZM54.871 51.4925V57.4838H50.9516V60.0967H61.4032C63.5638 60.0967 65.3226 58.3379 65.3226 56.1773V40.0011C65.3226 39.9407 65.3119 39.8837 65.3011 39.8266C65.2951 39.7944 65.289 39.7622 65.2849 39.7293C65.1956 40.667 64.7976 41.5659 64.1284 42.235L54.871 51.4925ZM57.6083 67.9354H50.9516V78.387H58.6532L57.6083 67.9354ZM62.8341 67.9354H60.2339L61.2788 78.387H63.879L62.8341 67.9354ZM67.9355 44.4193V56.1773C67.9355 59.779 65.0049 62.7096 61.4032 62.7096H50.9516V65.3225H64.0161C67.6178 65.3225 70.5484 62.3919 70.5484 58.7902V44.4193H67.9355ZM54.871 27.4354V30.0483C54.871 32.9304 57.2147 35.2741 60.0968 35.2741C62.9789 35.2741 65.3226 32.9304 65.3226 30.0483V27.4354C65.3226 24.5533 62.9789 22.2096 60.0968 22.2096C57.2147 22.2096 54.871 24.5533 54.871 27.4354ZM60.209 38.3157L51.4926 47.0322H39.1935C38.4727 47.0322 37.8871 47.6178 37.8871 48.3386C37.8871 49.0595 38.4727 49.6451 39.1935 49.6451H53.0236L62.281 40.3876C62.554 40.1146 62.7097 39.737 62.7097 39.3517C62.7097 38.5441 62.0526 37.887 61.245 37.887C60.8597 37.887 60.4821 38.0427 60.209 38.3157ZM28.7419 22.2096C25.8598 22.2096 23.5161 24.5533 23.5161 27.4354V30.0483C23.5161 32.9304 25.8598 35.2741 28.7419 35.2741C31.624 35.2741 33.9677 32.9304 33.9677 30.0483V27.4354C33.9677 24.5533 31.624 22.2096 28.7419 22.2096ZM31.3548 37.4296C30.5358 37.7199 29.6593 37.887 28.7419 37.887C27.8246 37.887 26.9481 37.7199 26.129 37.4296V38.833C26.4531 39.3332 27.3532 40.4999 28.7419 40.4999C30.1307 40.4999 31.0308 39.3332 31.3548 38.833V37.4296ZM18.8785 42.2503C17.764 42.5693 16.9839 43.6015 16.9839 44.7631V49.6438H35.5147C35.368 49.2336 35.2742 48.7973 35.2742 48.3373C35.2742 46.1767 37.0329 44.418 39.1935 44.418H40.4439C40.3042 43.4056 39.6063 42.5355 38.6054 42.2491L33.2233 40.7117C32.4655 41.7005 30.9906 43.1128 28.7419 43.1128C26.4933 43.1128 25.0184 41.7005 24.2606 40.713L18.8785 42.2503ZM52.2581 52.258H11.7581V54.8709H52.2581V52.258ZM18.2903 62.7096H14.371V78.387H17.4827L20.0956 73.1612H42.6141L45.227 78.387H48.3387V62.7096H20.9032V60.0967H48.3387V57.4838H14.371V60.0967H18.2903V62.7096ZM20.4044 78.387H42.3053L40.9988 75.7741H21.7108L20.4044 78.387Z" fill="#EF8B54"/>
</svg>
